<svg width="900" height="185" viewBox="0 0 900 185" fill="none" xmlns="http://www.w3.org/2000/svg">
<path d="M117.647 157.358L0.286445 112.732V80.6794L117.647 36.0529V66.8723L11.8746 105.335V88.0761L117.647 126.539V157.358ZM150.348 183V0.0557658H188.811V183H150.348ZM305.871 183V157.112L303.405 151.441V105.088C303.405 96.8699 300.858 90.4595 295.762 85.8571C290.831 81.2547 283.188 78.9535 272.832 78.9535C265.765 78.9535 258.779 80.1041 251.875 82.4053C245.136 84.5421 239.383 87.5008 234.616 91.2813L220.809 64.4068C228.042 59.3113 236.753 55.3664 246.944 52.5721C257.135 49.7778 267.49 48.3807 278.01 48.3807C298.228 48.3807 313.925 53.1474 325.102 62.6809C336.279 72.2144 341.868 87.0899 341.868 107.307V183H305.871ZM265.436 184.972C255.08 184.972 246.204 183.247 238.808 179.795C231.411 176.179 225.74 171.33 221.795 165.248C217.851 159.166 215.878 152.345 215.878 144.784C215.878 136.894 217.768 129.991 221.549 124.073C225.494 118.156 231.658 113.554 240.041 110.266C248.423 106.814 259.354 105.088 272.832 105.088H308.09V127.525H277.024C267.984 127.525 261.737 129.004 258.286 131.963C254.998 134.922 253.355 138.62 253.355 143.058C253.355 147.989 255.245 151.934 259.025 154.893C262.97 157.687 268.312 159.084 275.051 159.084C281.462 159.084 287.215 157.605 292.31 154.646C297.406 151.523 301.104 147.003 303.405 141.086L309.323 158.838C306.528 167.385 301.433 173.877 294.036 178.315C286.64 182.753 277.106 184.972 265.436 184.972ZM441.746 184.972C427.446 184.972 414.707 182.096 403.53 176.343C392.353 170.426 383.559 162.289 377.149 151.934C370.902 141.579 367.779 129.826 367.779 116.677C367.779 103.363 370.902 91.6101 377.149 81.4191C383.559 71.0638 392.353 63.0096 403.53 57.2567C414.707 51.3393 427.446 48.3807 441.746 48.3807C455.718 48.3807 467.881 51.3393 478.236 57.2567C488.592 63.0096 496.235 71.3103 501.166 82.1588L471.333 98.1849C467.881 91.9388 463.525 87.3364 458.265 84.3778C453.17 81.4191 447.581 79.9398 441.5 79.9398C434.925 79.9398 429.007 81.4191 423.748 84.3778C418.488 87.3364 414.296 91.5279 411.173 96.9521C408.215 102.376 406.735 108.951 406.735 116.677C406.735 124.402 408.215 130.977 411.173 136.401C414.296 141.825 418.488 146.017 423.748 148.975C429.007 151.934 434.925 153.413 441.5 153.413C447.581 153.413 453.17 152.016 458.265 149.222C463.525 146.263 467.881 141.579 471.333 135.168L501.166 151.441C496.235 162.125 488.592 170.426 478.236 176.343C467.881 182.096 455.718 184.972 441.746 184.972ZM587.457 184.972C572.335 184.972 559.021 182.014 547.515 176.096C536.173 170.179 527.379 162.125 521.133 151.934C514.887 141.579 511.764 129.826 511.764 116.677C511.764 103.363 514.805 91.6101 520.887 81.4191C527.133 71.0638 535.598 63.0096 546.282 57.2567C556.966 51.3393 569.047 48.3807 582.525 48.3807C595.511 48.3807 607.181 51.175 617.536 56.7635C628.056 62.1878 636.357 70.0775 642.438 80.4329C648.52 90.6239 651.561 102.869 651.561 117.17C651.561 118.649 651.479 120.375 651.315 122.347C651.15 124.155 650.986 125.881 650.821 127.525H543.077V105.088H630.604L615.81 111.745C615.81 104.842 614.413 98.8424 611.619 93.7469C608.825 88.6514 604.962 84.7065 600.031 81.9122C595.1 78.9535 589.347 77.4742 582.772 77.4742C576.197 77.4742 570.362 78.9535 565.267 81.9122C560.335 84.7065 556.473 88.7336 553.678 93.9934C550.884 99.0889 549.487 105.171 549.487 112.239V118.156C549.487 125.388 551.049 131.799 554.172 137.387C557.459 142.811 561.979 147.003 567.732 149.962C573.649 152.756 580.553 154.153 588.443 154.153C595.511 154.153 601.675 153.085 606.934 150.948C612.359 148.811 617.29 145.606 621.728 141.332L642.192 163.522C636.11 170.426 628.467 175.768 619.262 179.548C610.058 183.164 599.456 184.972 587.457 184.972ZM731.41 184.972C715.795 184.972 703.632 181.028 694.92 173.138C686.209 165.084 681.853 153.167 681.853 137.387V21.013H720.315V136.894C720.315 142.483 721.795 146.839 724.753 149.962C727.712 152.92 731.739 154.4 736.835 154.4C742.916 154.4 748.094 152.756 752.368 149.468L762.723 176.59C758.778 179.384 754.011 181.521 748.423 183C742.998 184.315 737.328 184.972 731.41 184.972ZM661.389 82.8984V53.3118H753.354V82.8984H661.389ZM781.848 157.358V126.539L887.621 88.0761V105.335L781.848 66.8723V36.0529L899.209 80.6794V112.732L781.848 157.358Z" fill="white"/>
</svg>
