<svg xmlns="http://www.w3.org/2000/svg" data-name="Layer 1" viewBox="0 0 128 160" x="0px" y="0px"><title>toggle2</title><path d="M64,74H24A10,10,0,0,1,14,64h0A10,10,0,0,1,24,54H64A10,10,0,0,1,74,64h0A10,10,0,0,1,64,74Zm50-10h0A15,15,0,0,0,99,49h0A15,15,0,0,0,84,64h0A15,15,0,0,0,99,79h0A15,15,0,0,0,114,64Zm0-40h0a10,10,0,0,0-10-10H24A10,10,0,0,0,14,24h0A10,10,0,0,0,24,34h80A10,10,0,0,0,114,24Zm0,80h0a10,10,0,0,0-10-10H24a10,10,0,0,0-10,10h0a10,10,0,0,0,10,10h80A10,10,0,0,0,114,104Z"/><text x="0" y="143" fill="#000000" font-size="5px" font-weight="bold" font-family="'Helvetica Neue', Helvetica, Arial-Unicode, Arial, Sans-serif">Created by Ömer Demirsoy</text><text x="0" y="148" fill="#000000" font-size="5px" font-weight="bold" font-family="'Helvetica Neue', Helvetica, Arial-Unicode, Arial, Sans-serif">from the Noun Project</text></svg>